<svg width="86" height="26" viewBox="0 0 86 26" fill="none" xmlns="http://www.w3.org/2000/svg">
<path d="M-0.000352889 25.1992V-0.000782967H6.04765L13.3196 23.9032H13.7516V-0.000782967H16.7756V25.1992H10.7276L3.45565 1.29522H3.02365V25.1992H-0.000352889ZM29.7955 25.7032C28.2355 25.7032 26.8195 25.3552 25.5475 24.6592C24.2995 23.9392 23.3035 22.9072 22.5595 21.5632C21.8155 20.1952 21.4435 18.5272 21.4435 16.5592V15.9832C21.4435 14.0392 21.8155 12.3832 22.5595 11.0152C23.3035 9.64722 24.2995 8.61522 25.5475 7.91922C26.8195 7.19922 28.2115 6.83922 29.7235 6.83922C30.9475 6.83922 32.0515 7.11522 33.0355 7.66722C34.0435 8.19522 34.8355 9.02322 35.4115 10.1512H35.8435V7.34322H38.6515V21.5272C38.6515 22.2472 38.9755 22.6072 39.6235 22.6072H40.5235V25.1992H38.6155C37.8715 25.1992 37.2235 24.9592 36.6715 24.4792C36.1195 23.9992 35.8435 23.2312 35.8435 22.1752H35.4115C34.8355 23.3512 34.0315 24.2392 32.9995 24.8392C31.9915 25.4152 30.9235 25.7032 29.7955 25.7032ZM30.0835 23.0392C31.7635 23.0392 33.1435 22.4392 34.2235 21.2392C35.3035 20.0392 35.8435 18.4552 35.8435 16.4872V16.0552C35.8435 14.7832 35.5915 13.6552 35.0875 12.6712C34.5835 11.6872 33.8995 10.9192 33.0355 10.3672C32.1715 9.79122 31.1875 9.50322 30.0835 9.50322C28.9795 9.50322 27.9955 9.77922 27.1315 10.3312C26.2675 10.8592 25.5835 11.6152 25.0795 12.5992C24.5755 13.5592 24.3235 14.6872 24.3235 15.9832V16.5592C24.3235 18.5752 24.8635 20.1592 25.9435 21.3112C27.0235 22.4632 28.4035 23.0392 30.0835 23.0392ZM52.8233 25.7032C51.2393 25.7032 49.7993 25.3552 48.5033 24.6592C47.2073 23.9392 46.1753 22.8952 45.4073 21.5272C44.6393 20.1592 44.2553 18.5032 44.2553 16.5592V15.9832C44.2553 14.0392 44.6393 12.3952 45.4073 11.0512C46.1993 9.68322 47.2313 8.63922 48.5033 7.91922C49.7993 7.19922 51.2153 6.83922 52.7513 6.83922C53.9753 6.83922 55.1153 7.11522 56.1713 7.66722C57.2513 8.19522 58.0793 9.02322 58.6553 10.1512H59.0873V-0.000782967H61.8953V25.1992H59.0873V22.4632H58.6553C58.0793 23.5672 57.2273 24.3832 56.0993 24.9112C54.9953 25.4392 53.9033 25.7032 52.8233 25.7032ZM53.1113 23.0392C54.2393 23.0392 55.2473 22.7752 56.1353 22.2472C57.0473 21.6952 57.7673 20.9272 58.2953 19.9432C58.8233 18.9592 59.0873 17.8072 59.0873 16.4872V16.0552C59.0873 14.7832 58.8113 13.6552 58.2593 12.6712C57.7313 11.6872 57.0113 10.9192 56.0993 10.3672C55.2113 9.79122 54.2153 9.50322 53.1113 9.50322C51.9833 9.50322 50.9633 9.77922 50.0513 10.3312C49.1633 10.8592 48.4553 11.6152 47.9273 12.5992C47.3993 13.5592 47.1353 14.6872 47.1353 15.9832V16.5592C47.1353 17.8792 47.3873 19.0312 47.8913 20.0152C48.4193 20.9752 49.1393 21.7192 50.0513 22.2472C50.9633 22.7752 51.9833 23.0392 53.1113 23.0392ZM74.5552 25.7032C72.9952 25.7032 71.5792 25.3552 70.3072 24.6592C69.0592 23.9392 68.0632 22.9072 67.3192 21.5632C66.5752 20.1952 66.2032 18.5272 66.2032 16.5592V15.9832C66.2032 14.0392 66.5752 12.3832 67.3192 11.0152C68.0632 9.64722 69.0592 8.61522 70.3072 7.91922C71.5792 7.19922 72.9712 6.83922 74.4832 6.83922C75.7072 6.83922 76.8112 7.11522 77.7952 7.66722C78.8032 8.19522 79.5952 9.02322 80.1712 10.1512H80.6032V7.34322H83.4112V21.5272C83.4112 22.2472 83.7352 22.6072 84.3832 22.6072H85.2832V25.1992H83.3752C82.6312 25.1992 81.9832 24.9592 81.4312 24.4792C80.8792 23.9992 80.6032 23.2312 80.6032 22.1752H80.1712C79.5952 23.3512 78.7912 24.2392 77.7592 24.8392C76.7512 25.4152 75.6832 25.7032 74.5552 25.7032ZM74.8432 23.0392C76.5232 23.0392 77.9032 22.4392 78.9832 21.2392C80.0632 20.0392 80.6032 18.4552 80.6032 16.4872V16.0552C80.6032 14.7832 80.3512 13.6552 79.8472 12.6712C79.3432 11.6872 78.6592 10.9192 77.7952 10.3672C76.9312 9.79122 75.9472 9.50322 74.8432 9.50322C73.7392 9.50322 72.7552 9.77922 71.8912 10.3312C71.0272 10.8592 70.3432 11.6152 69.8392 12.5992C69.3352 13.5592 69.0832 14.6872 69.0832 15.9832V16.5592C69.0832 18.5752 69.6232 20.1592 70.7032 21.3112C71.7832 22.4632 73.1632 23.0392 74.8432 23.0392Z" fill="#FF5100"/>
</svg>
