<svg width="36" height="36" viewBox="0 0 36 36" fill="none" xmlns="http://www.w3.org/2000/svg">
<rect width="36" height="36" rx="6.87238" fill="#E9E8E8"/>
<g clip-path="url(#clip0_3868_18049)">
<rect x="4.83984" y="4.83984" width="26.3163" height="26.3163" rx="6.87238" fill="#E9E8E8"/>
<path d="M17.998 31.1561C25.265 31.1561 31.1561 25.265 31.1561 17.998C31.1561 10.7309 25.265 4.83984 17.998 4.83984C10.7309 4.83984 4.83984 10.7309 4.83984 17.998C4.83984 25.265 10.7309 31.1561 17.998 31.1561Z" fill="#2D2D2D"/>
<path d="M17.9984 23.8717C21.2432 23.8717 23.8737 21.2413 23.8737 17.9964C23.8737 14.7516 21.2432 12.1211 17.9984 12.1211C14.7535 12.1211 12.123 14.7516 12.123 17.9964C12.123 21.2413 14.7535 23.8717 17.9984 23.8717Z" fill="white"/>
<path d="M25.5435 25.3605C26.4229 25.3605 27.1359 24.6475 27.1359 23.7681C27.1359 22.8887 26.4229 22.1758 25.5435 22.1758C24.6641 22.1758 23.9512 22.8887 23.9512 23.7681C23.9512 24.6475 24.6641 25.3605 25.5435 25.3605Z" fill="#F15B22"/>
</g>
<defs>
<clipPath id="clip0_3868_18049">
<rect x="4.83984" y="4.83984" width="26.3163" height="26.3163" rx="6.87238" fill="white"/>
</clipPath>
</defs>
</svg>
